<svg width="35" height="35" viewBox="0 0 35 35" fill="none" xmlns="http://www.w3.org/2000/svg">
<path d="M17.5 16.0402C19.5956 16.679 21.2362 18.321 21.8735 20.4167C22.5152 18.321 24.1558 16.6804 26.25 16.0417C24.1558 15.4015 22.5152 13.7623 21.8735 11.6667C21.2362 13.7608 19.5956 15.4015 17.5 16.0402ZM29.1681 16.0417C30.5652 16.469 31.6575 17.5613 32.0848 18.9598C32.5092 17.5613 33.6044 16.4675 35 16.0417C33.6044 15.6158 32.5106 14.5221 32.0833 13.125C31.656 14.5221 30.5637 15.6158 29.1681 16.0417ZM27.7098 2.91667C27.0725 5.01229 25.4304 6.65292 23.3377 7.29313C25.4348 7.93479 27.0725 9.57396 27.7142 11.671C28.3515 9.57396 29.9935 7.93333 32.0833 7.29313C29.9935 6.65583 28.3515 5.01229 27.7098 2.91667ZM17.5 35C7.85021 35 0 27.1498 0 17.5C0 7.85021 7.85021 0 17.5 0C20.2621 0 22.7938 0.724792 25.3313 1.71938C21.0321 2.45438 11.6667 6.48229 11.6667 17.5C11.6667 28.3704 20.2956 32.3867 25.3313 33.2806C23.1438 34.5144 20.2621 35 17.5 35Z" fill="#9EAAB9"/>
</svg>
