<svg width="35" height="35" viewBox="0 0 35 35" fill="none" xmlns="http://www.w3.org/2000/svg">
<path fill-rule="evenodd" clip-rule="evenodd" d="M21.5316 7.76693L17.5 0L13.4684 7.76693L5.12563 5.12563L7.76693 13.4684L0 17.5L7.76693 21.5316L5.12563 29.8744L13.4684 27.2331L17.5 35L21.5316 27.2331L29.8744 29.8744L27.2331 21.5316L35 17.5L27.2331 13.4684L29.8744 5.12563L21.5316 7.76693ZM17.907 26.0465C22.8519 26.0465 26.8605 22.0379 26.8605 17.093C26.8605 12.1481 22.8519 8.13952 17.907 8.13952C12.9621 8.13952 8.95349 12.1481 8.95349 17.093C8.95349 22.0379 12.9621 26.0465 17.907 26.0465Z" fill="#B2BECD" fill-opacity="0.7"/>
<circle cx="17.907" cy="17.093" r="7.32558" fill="#B2BECD"/>
</svg>
