<svg width="219" height="363" viewBox="0 0 219 363" fill="none" xmlns="http://www.w3.org/2000/svg">
<path fill-rule="evenodd" clip-rule="evenodd" d="M214 166.889C214 155.564 214.5 137.889 214.5 137.889C217.33 121.889 221.3 84.7888 214.5 64.3889C206 38.8889 191 26.8889 187.5 24.3889C184.7 22.3889 176 19.2218 172 17.8889C166.5 12.8889 152.7 2.48887 141.5 0.88889C131.076 -0.600246 117.602 0.128148 108.923 0.597386C105.946 0.758397 103.532 0.88889 102 0.88889C96 0.88889 61.5 8.88889 52.5 13.3889C46.3723 16.4527 37.9267 25.7749 29.5304 35.0426L29.5295 35.0437L29.5253 35.0484L29.5126 35.0624C25.583 39.3995 21.6646 43.7243 18 47.3889C6.5 58.8889 0 92.3889 0 102.889V166.889H0.5V174.898V193.417C3.69901 208.934 10.096 242.169 10.096 250.978C10.096 261.989 20.148 301.531 44.366 334.065C63.6575 359.981 94.819 363.967 108.167 362.519C121.183 363.961 151.574 359.389 170.383 333.5C194.003 301 203.803 261.5 203.803 250.5C203.803 241.7 210.043 208.5 213.163 193V174.5V166.889H214ZM209.13 166.889H209C209 165.915 209.004 164.848 209.011 163.707L202.251 164.406C202.475 173.306 200.778 184.515 199.75 190.385C199.34 192.722 197.3 194.389 194.93 194.389H137.708C136.597 194.389 135.512 194.017 134.65 193.317C122.7 183.603 119.539 174.945 118.444 165.814C111.692 165.119 106.266 165.283 99.2622 166.308C98.1122 175.258 94.852 183.778 83.1179 193.317C82.2559 194.017 81.1719 194.389 80.0609 194.389H22.8419C20.4689 194.389 18.4299 192.722 18.0209 190.385C17.0288 184.72 15.4128 174.08 15.5034 165.344L5 164.257V166.889H4.62482C4.95789 179.439 6.48863 205.431 10.096 212.938C14.665 222.448 30.658 242.969 40.71 253.48C43.6745 256.579 46.1223 259.418 48.1122 261.726L48.1173 261.732L48.1194 261.734C52.8724 267.247 55.0099 269.726 55.332 265.493C55.4495 263.948 55.4159 261.906 55.3788 259.658C55.2719 253.164 55.1365 244.943 58.531 241.968C63.1 237.964 78.179 233.96 85.49 232.458C86.7262 232.204 87.9885 231.907 89.2482 231.611L89.2494 231.611C95.4395 230.156 101.567 228.716 104.224 232.458C106.783 236.062 107.695 235.502 108 234C108.297 235.5 109.515 235.6 112.01 232C114.602 228.261 120.579 229.7 126.616 231.154C127.844 231.45 129.075 231.746 130.28 232C137.41 233.5 152.113 237.5 156.573 241.5C159.876 244.469 159.747 252.671 159.645 259.156V259.157C159.609 261.409 159.577 263.453 159.693 265C160.003 269.226 162.084 266.755 166.715 261.255L166.715 261.255L166.718 261.252C168.661 258.944 171.054 256.103 173.953 253C183.753 242.5 199.353 222 203.803 212.5C207.289 205.078 208.783 179.566 209.13 166.889ZM5 154.204V127.389C6.16699 111.889 10 79.1888 16 72.3889C22 65.5888 30.167 56.5559 33.5 52.8889L29.5 64.3889L40 58.3889L36.5 69.3889C40.833 65.7218 50.1 58.3889 52.5 58.3889C53.5081 58.3889 55.3629 57.1469 57.5145 55.7063C61.766 52.8595 67.1761 49.237 69.5 52.8889C72.3 57.2888 67.333 63.7218 64.5 66.3889C66 65.5559 70.7 62.7888 77.5 58.3889C82.7773 54.9742 89.211 55.2214 94.4078 55.421C97.5815 55.5429 100.294 55.6472 102 54.8889C105.6 53.2888 116.833 54.2218 122 54.8889L144 52.8889C148.67 47.8889 158.3 37.7888 159.5 37.3889C160.019 37.216 160.119 37.6408 160.297 38.3947C160.633 39.8214 161.247 42.4262 165.5 44.3889C167.793 45.447 168.903 44.7635 169.885 44.1594C171.688 43.0505 173.056 42.2085 180.5 52.8889C182.258 55.4106 184.062 57.9323 185.861 60.447L185.868 60.4569C195.839 74.3922 205.653 88.1079 206.5 100.389C207.033 108.119 207.85 113.576 208.497 117.895C209.064 121.677 209.5 124.588 209.5 127.389C209.5 129.29 209.422 134.128 209.327 139.973C209.258 144.243 209.18 149.051 209.117 153.643L200.56 154.528C199.647 152.565 198.311 151.389 196.42 151.389H122.841C119.937 151.389 117.665 153.856 117.804 156.756L117.816 157.015L117.836 157.43C115.237 157.189 112.664 157 111 157C108.4 157 103.583 157.462 99.9109 157.86L99.9515 157.015L99.9639 156.756C100.104 153.856 97.8309 151.389 94.9269 151.389H21.3519C19.1865 151.389 17.7484 152.93 16.8398 155.429L5 154.204ZM114.5 287L108.337 287L108 287L107 287H104.224C104.101 287.007 103.965 287.015 103.816 287.024C100.451 287.229 90.5084 287.834 80.007 284C66.298 278.995 64.014 272 64.014 265.493C64.014 258.986 70.868 248.475 80.007 246.974C84.6394 246.212 92.0718 246.025 98.5234 245.863H98.5243H98.5254H98.5268C102.256 245.769 105.657 245.683 108 245.5C110.428 245.695 114.073 245.707 118.038 245.721H118.044H118.046C124.266 245.743 131.275 245.768 135.627 246.5C144.543 248 151.223 258.5 151.223 265L151.223 265.43C151.23 271.79 151.237 278.221 138.163 283.111C127.468 287.111 117.322 287.167 114.5 287Z" fill="#FFD829"/>
</svg>
