<svg width="35" height="27" viewBox="0 0 35 27" fill="none" xmlns="http://www.w3.org/2000/svg">
<path d="M24.6035 1.91333C24.1923 0.799166 23.1306 0 21.875 0C19.9821 0 18.5019 1.81417 19.0983 3.76542C20.7185 3.18937 22.5196 2.15687 24.6035 1.91333ZM18.9583 14.5833C18.9583 13.7783 18.3065 13.125 17.5 13.125C16.6935 13.125 16.0417 13.7783 16.0417 14.5833C16.0417 15.3883 16.6935 16.0417 17.5 16.0417C18.3065 16.0417 18.9583 15.3883 18.9583 14.5833ZM26.7138 21.6898C28.8473 21.2362 30.3173 19.5169 29.8433 16.9837C31.8835 19.196 29.6173 22.7427 26.7138 21.6898ZM6.29563 21.6898C8.42917 21.2362 9.89917 19.5169 9.42521 16.9837C11.4654 19.196 9.19771 22.7427 6.29563 21.6898ZM13.125 0C11.8694 0 10.8077 0.799166 10.3965 1.91333C12.4804 2.15833 14.2815 3.18937 15.9017 3.76542C16.4981 1.81417 15.0179 0 13.125 0ZM14.7788 8.01208C16.5404 8.58958 18.4494 8.5925 20.2198 8.01208C24.0333 6.76667 25.3458 5.11583 26.7123 7.52938C27.284 8.53708 28.6548 10.9375 29.1404 11.8081C24.9783 10.9696 21.0146 13.8731 20.4779 18.0119C18.6798 17.1077 16.4033 17.0683 14.5221 18.0119C13.984 13.8717 10.0217 10.9696 5.85813 11.8081C6.46188 10.7319 7.58333 8.77333 8.28625 7.53083C9.65125 5.11729 10.9608 6.76375 14.7788 8.01208ZM25.2365 3.38187C23.205 3.38187 21.0656 4.66667 19.3127 5.23979C18.1285 5.62771 16.8554 5.62333 15.6873 5.23979C13.9358 4.66667 11.795 3.38187 9.76354 3.38187C8.30813 3.38187 6.90813 4.04104 5.74729 6.09292C2.23854 12.2981 0 15.8448 0 18.9583C0 22.9848 3.26375 26.25 7.29167 26.25C13.1819 26.25 13.3525 20.2373 17.5 20.2373C21.6475 20.2373 21.8181 26.25 27.7083 26.25C31.7363 26.25 35 22.9848 35 18.9583C35 15.8448 32.7615 12.2981 29.2527 6.09438C28.0904 4.04104 26.6919 3.38187 25.2365 3.38187ZM27.7083 23.3333C25.2963 23.3333 23.3333 21.3704 23.3333 18.9583C23.3333 16.5463 25.2963 14.5833 27.7083 14.5833C30.1204 14.5833 32.0833 16.5463 32.0833 18.9583C32.0833 21.3704 30.1204 23.3333 27.7083 23.3333ZM7.29167 23.3333C4.87958 23.3333 2.91667 21.3704 2.91667 18.9583C2.91667 16.5463 4.87958 14.5833 7.29167 14.5833C9.70375 14.5833 11.6667 16.5463 11.6667 18.9583C11.6667 21.3704 9.70375 23.3333 7.29167 23.3333Z" fill="#B2BECD"/>
</svg>
