<svg width="948" height="533" viewBox="0 0 948 533" fill="none" xmlns="http://www.w3.org/2000/svg">
<g id="scene">
<path id="background" d="M866.999 526L70.5 532.5C-73 159 37.7581 65.5596 96 25.5C159.328 -18.0582 241.5 4 288.5 25.5C335.5 47 363.5 20.0001 558 15C630 13.1491 782 -12.5 843 63.5C865.975 92.1249 990.999 216.5 932.499 316.5C875.389 414.126 887.666 517.167 866.999 526Z" fill="#E9DFFF"/>
<g id="desk">
<path id="Vector" d="M206.6 244.83H187.6V302.49H206.6V244.83Z" fill="#3F3D56"/>
<path id="Vector_2" d="M717.93 241.83H698.93V302.83H717.93V241.83Z" fill="#3F3D56"/>
<path id="Vector_3" d="M839.1 512.65V525.65L687.18 527.05L685.56 527.08L627.82 527.61L626.44 527.63L608.89 527.78H608.37L501.39 528.77L325.78 530.4H325.63L280.98 530.82L280.5 530.83L82.1 532.65V517.65L128.75 489.65L222.35 488.87L224.35 488.86L225.01 488.85L227.01 488.82L271.95 488.45L273.96 488.44L274.6 488.43L276.6 488.42L291.01 488.3L291.39 488.29L326.94 487.99H327.23L604.63 485.65L611.42 485.6H612.1L617.28 485.55L654.93 485.24L656.93 485.21L658.78 485.19H659.74L671.45 485.1L673.77 485.07L676.88 485.05L686.63 484.96L702.1 484.83L704.1 484.81L707.58 484.79H708.23L782.94 484.15L839.1 512.65Z" fill="#65617D"/>
<path id="Vector_4" opacity="0.2" d="M839.1 512.65V525.65L687.18 527.05L685.56 527.08L627.82 527.61L626.44 527.63L608.89 527.78H608.37L501.39 528.77L325.78 530.4H325.63L280.98 530.82L280.5 530.83L82.1 532.65V517.65L128.75 489.65L222.35 488.87L224.35 488.86L225.01 488.85L227.01 488.82L271.95 488.45L273.96 488.44L274.6 488.43L276.6 488.42L291.01 488.3L291.39 488.29L326.94 487.99H327.23L604.63 485.65L611.42 485.6H612.1L617.28 485.55L654.93 485.24L656.93 485.21L658.78 485.19H659.74L671.45 485.1L673.77 485.07L676.88 485.05L686.63 484.96L702.1 484.83L704.1 484.81L707.58 484.79H708.23L782.94 484.15L839.1 512.65Z" fill="black"/>
<path id="Vector_5" d="M272.1 462.66V487.15C272.101 488.31 271.772 489.446 271.152 490.427C270.533 491.408 269.648 492.192 268.6 492.69C267.82 493.068 266.967 493.273 266.1 493.29L231.2 494.03C230.268 494.052 229.343 493.857 228.5 493.46C227.434 492.971 226.53 492.186 225.897 491.199C225.265 490.211 224.929 489.063 224.93 487.89V462.66H272.1Z" fill="#3F3D56"/>
<path id="Vector_6" opacity="0.1" d="M272.1 462.66V487.15C272.101 488.31 271.772 489.446 271.152 490.427C270.533 491.408 269.648 492.192 268.6 492.69C267.82 493.068 266.967 493.273 266.1 493.29L231.2 494.03C230.268 494.052 229.343 493.857 228.5 493.46C227.434 492.971 226.53 492.186 225.897 491.199C225.265 490.211 224.929 489.063 224.93 487.89V462.66H272.1Z" fill="black"/>
<path id="Vector_7" d="M274.1 462.66V487.15C274.101 488.31 273.772 489.446 273.152 490.427C272.533 491.408 271.648 492.192 270.6 492.69C269.82 493.068 268.967 493.273 268.1 493.29L233.2 494.03C232.268 494.052 231.343 493.857 230.5 493.46C229.434 492.971 228.53 492.186 227.897 491.199C227.265 490.211 226.929 489.063 226.93 487.89V462.66H274.1Z" fill="#3F3D56"/>
<path id="Vector_8" d="M704.1 462.66H656.93V494.16H704.1V462.66Z" fill="#3F3D56"/>
<path id="Vector_9" opacity="0.1" d="M704.1 462.66H656.93V494.16H704.1V462.66Z" fill="black"/>
<path id="Vector_10" d="M702.1 462.66H654.93V494.16H702.1V462.66Z" fill="#3F3D56"/>
<path id="Vector_11" opacity="0.1" d="M206.6 244.82V250.55L187.6 250.06V244.82H206.6Z" fill="black"/>
<path id="Vector_12" d="M331.66 83.4L308.83 247.4C308.685 248.448 308.16 249.405 307.353 250.089C306.547 250.774 305.517 251.137 304.46 251.11L121.66 246.37L118.19 246.28C117.586 246.266 116.991 246.124 116.446 245.865C115.9 245.605 115.415 245.234 115.022 244.774C114.63 244.315 114.339 243.777 114.168 243.198C113.997 242.618 113.95 242.009 114.03 241.41L139.66 69.73C139.825 68.6666 140.383 67.7037 141.224 67.0317C142.064 66.3596 143.126 66.0272 144.2 66.1L327.66 78.52C328.252 78.5543 328.83 78.7109 329.359 78.98C329.887 79.249 330.354 79.6247 330.73 80.0833C331.105 80.5418 331.382 81.0733 331.542 81.6441C331.702 82.215 331.743 82.8129 331.66 83.4V83.4Z" fill="#65617D"/>
<path id="Vector_13" d="M559.94 75.82H365.93C362.986 75.82 360.6 78.2063 360.6 81.15V243.82C360.6 246.764 362.986 249.15 365.93 249.15H559.94C562.884 249.15 565.27 246.764 565.27 243.82V81.15C565.27 78.2063 562.884 75.82 559.94 75.82Z" fill="#65617D"/>
<path id="Vector_14" opacity="0.1" d="M717.93 241.82V245.61L698.93 246V241.82H717.93Z" fill="black"/>
<path id="Vector_15" d="M803.66 238.62C803.687 239.034 803.63 239.45 803.493 239.842C803.355 240.233 803.139 240.593 802.859 240.9C802.579 241.206 802.24 241.453 801.862 241.624C801.484 241.796 801.075 241.89 800.66 241.9L613.46 245.77C612.682 245.786 611.928 245.507 611.347 244.99C610.766 244.472 610.403 243.754 610.33 242.98L594.24 75.7C594.2 75.285 594.245 74.8662 594.372 74.4691C594.499 74.072 594.705 73.7047 594.978 73.3896C595.251 73.0745 595.585 72.8181 595.96 72.636C596.335 72.4539 596.744 72.3498 597.16 72.33L782.94 63.09L784.94 62.99C785.735 62.9481 786.515 63.2167 787.116 63.7391C787.717 64.2615 788.091 64.9969 788.16 65.79L803.66 238.62Z" fill="#65617D"/>
<path id="Vector_16" opacity="0.1" d="M803.66 238.62C803.687 239.034 803.63 239.45 803.492 239.842C803.355 240.233 803.139 240.593 802.859 240.9C802.579 241.206 802.24 241.453 801.862 241.624C801.484 241.796 801.075 241.89 800.66 241.9L782.94 63.09L784.94 62.99C785.735 62.9481 786.515 63.2167 787.116 63.7391C787.717 64.2615 788.091 64.9969 788.16 65.79L803.66 238.62Z" fill="black"/>
<path id="Vector_17" opacity="0.1" d="M144.23 66.09L121.66 246.37L118.19 246.28C117.586 246.266 116.991 246.124 116.446 245.865C115.9 245.605 115.415 245.234 115.022 244.774C114.63 244.315 114.339 243.777 114.168 243.198C113.997 242.618 113.95 242.009 114.03 241.41L139.66 69.73C139.823 68.6592 140.385 67.6895 141.232 67.0147C142.079 66.3398 143.15 66.0096 144.23 66.09V66.09Z" fill="black"/>
<path id="Vector_18" opacity="0.1" d="M206.6 285.41H187.6V302.49H206.6V285.41Z" fill="black"/>
<path id="Vector_19" opacity="0.1" d="M274.1 462.65V467.62L226.93 468.88V462.65H274.1Z" fill="black"/>
<path id="Vector_20" d="M357.35 291.36V459.56C357.338 460.587 356.931 461.569 356.215 462.305C355.498 463.04 354.526 463.472 353.5 463.51L161.85 468.61H161.8C160.756 468.597 159.759 468.177 159.021 467.439C158.283 466.701 157.863 465.704 157.85 464.66V291.36C157.863 290.316 158.283 289.319 159.021 288.581C159.759 287.843 160.756 287.423 161.8 287.41H353.4C354.444 287.423 355.441 287.843 356.179 288.581C356.917 289.319 357.337 290.316 357.35 291.36V291.36Z" fill="#65617D"/>
<path id="Vector_21" opacity="0.1" d="M161.85 287.41V468.61H161.8C160.756 468.597 159.759 468.177 159.021 467.439C158.283 466.701 157.863 465.704 157.85 464.66V291.36C157.863 290.316 158.283 289.319 159.021 288.581C159.759 287.843 160.756 287.423 161.8 287.41H161.85Z" fill="black"/>
<path id="Vector_22" opacity="0.1" d="M717.93 285.41H698.93V302.83H717.93V285.41Z" fill="black"/>
<path id="Vector_23" opacity="0.1" d="M702.1 462.65V469.06L654.93 467.8V462.65H702.1Z" fill="black"/>
<path id="Vector_24" d="M764.35 291.36V464.66C764.337 465.712 763.91 466.717 763.161 467.456C762.412 468.196 761.402 468.61 760.35 468.61V468.61L568.66 463.51C567.634 463.472 566.662 463.04 565.945 462.305C565.229 461.569 564.822 460.587 564.81 459.56V291.36C564.823 290.316 565.243 289.319 565.981 288.581C566.719 287.843 567.716 287.423 568.76 287.41H760.36C761.411 287.413 762.418 287.828 763.164 288.567C763.911 289.306 764.337 290.31 764.35 291.36V291.36Z" fill="#65617D"/>
<path id="Vector_25" opacity="0.1" d="M764.35 291.36V464.66C764.337 465.712 763.91 466.717 763.161 467.456C762.412 468.196 761.402 468.61 760.35 468.61V468.61V287.41C761.402 287.41 762.412 287.824 763.161 288.564C763.91 289.303 764.337 290.308 764.35 291.36Z" fill="black"/>
<path id="Vector_26" d="M559.85 291.36V459.56C559.838 460.587 559.431 461.569 558.715 462.305C557.998 463.04 557.026 463.472 556 463.51L364.35 468.61C363.298 468.61 362.288 468.196 361.539 467.456C360.79 466.717 360.363 465.712 360.35 464.66V291.36C360.363 290.316 360.783 289.319 361.521 288.581C362.259 287.843 363.256 287.423 364.3 287.41H555.9C556.944 287.423 557.941 287.843 558.679 288.581C559.417 289.319 559.837 290.316 559.85 291.36V291.36Z" fill="#65617D"/>
<path id="Vector_27" opacity="0.1" d="M839.1 512.65V525.65L687.18 527.05L685.56 527.08L627.82 527.61L626.44 527.63L608.89 527.78H608.37L501.39 528.77L325.78 530.4H325.63L280.98 530.82L280.5 530.83L82.1 532.65V517.65L284.61 516.32H285.09L326.08 516.04H326.27L609.35 514.17H609.64L609.81 514.16H610.28L615.07 514.13H616.53L691.02 513.63L695.42 513.61L696.4 513.6L839.1 512.65Z" fill="black"/>
<path id="Vector_28" opacity="0.1" d="M274.1 483.96V487.15C274.101 488.31 273.772 489.446 273.152 490.427C272.533 491.408 271.648 492.192 270.6 492.69L230.5 493.46C229.434 492.971 228.53 492.186 227.897 491.199C227.265 490.211 226.929 489.063 226.93 487.89V484.89L274.1 483.96Z" fill="black"/>
<path id="Vector_29" d="M274.6 494.57L222.35 495.57V486.9L274.6 485.9V494.57Z" fill="#3F3D56"/>
<path id="Vector_30" opacity="0.1" d="M274.6 494.57L222.35 495.57V486.9L274.6 485.9V494.57Z" fill="black"/>
<path id="Vector_31" d="M276.6 494.57L224.35 495.57V486.9L276.6 485.9V494.57Z" fill="#3F3D56"/>
<g id="Group" opacity="0.1">
<path id="Vector_32" opacity="0.1" d="M449.59 167.65C448.613 166.381 447.964 164.89 447.7 163.31C447.459 164.855 447.603 166.435 448.12 167.91C448.616 167.864 449.108 167.777 449.59 167.65Z" fill="black"/>
<path id="Vector_33" opacity="0.1" d="M436.89 174.29C436.701 173.064 436.578 171.829 436.52 170.59C436.52 171.82 436.52 173.06 436.52 174.3L436.89 174.29Z" fill="black"/>
<path id="Vector_34" opacity="0.1" d="M518.39 207.66C518.445 206.769 518.566 205.883 518.75 205.01C519.223 203.489 519.492 201.912 519.55 200.32C519.528 199.963 519.474 199.608 519.39 199.26C519.22 200.18 518.95 201.1 518.75 202.01C518.351 203.865 518.229 205.769 518.39 207.66Z" fill="black"/>
<path id="Vector_35" opacity="0.1" d="M497.59 176.76L498.68 177.55C499.599 176.885 500.459 176.143 501.25 175.33C501.626 174.81 501.859 174.199 501.926 173.561C501.993 172.922 501.891 172.277 501.63 171.69C501.53 171.918 501.403 172.133 501.25 172.33C500.02 173.91 497.3 174.78 497.59 176.76Z" fill="black"/>
<path id="Vector_36" opacity="0.1" d="M415.42 186.38C415.055 187.109 414.764 187.873 414.55 188.66C416.114 187.787 417.799 187.15 419.55 186.77L415.42 186.38Z" fill="black"/>
<path id="Vector_37" opacity="0.1" d="M429.21 175.5C428.553 175.138 427.925 174.727 427.33 174.27C427.305 174.666 427.335 175.063 427.42 175.45C428.017 175.422 428.615 175.438 429.21 175.5V175.5Z" fill="black"/>
<path id="Vector_38" opacity="0.1" d="M526.98 234.42C526.57 239.27 524.31 243.94 522.48 248.54C518.81 257.76 516.74 267.54 515.19 277.35C513.8 286.14 512.19 296.12 504.69 300.99C502.547 302.27 500.253 303.278 497.86 303.99C487.08 307.72 476.21 311.46 464.86 312.82C453.51 314.18 441.6 312.99 431.7 307.33C428.83 305.832 426.366 303.66 424.52 301C421.85 296.77 421.8 291.47 420.52 286.63C419.429 283.036 418.092 279.521 416.52 276.11C414.31 270.73 412.61 265.11 410.92 259.58C409.353 254.44 407.79 249.297 406.23 244.15C405.716 242.602 405.335 241.013 405.09 239.4C404.7 241.96 405.46 244.64 406.23 247.15C407.79 252.303 409.353 257.447 410.92 262.58C412.61 268.15 414.31 273.73 416.52 279.11C418.092 282.521 419.429 286.036 420.52 289.63C421.78 294.47 421.83 299.77 424.52 304C426.366 306.66 428.83 308.832 431.7 310.33C441.6 315.99 453.54 317.18 464.86 315.82C476.18 314.46 487.04 310.72 497.86 306.99C500.253 306.278 502.547 305.27 504.69 303.99C512.14 299.12 513.8 289.14 515.19 280.35C516.74 270.54 518.81 260.76 522.48 251.54C524.66 246.06 527.48 240.49 527 234.6C527 234.54 526.98 234.48 526.98 234.42Z" fill="black"/>
<path id="Vector_39" opacity="0.1" d="M407.29 230.55C407.29 230.55 407.29 230.48 407.29 230.44C407.47 228.677 407.314 226.895 406.83 225.19C406.631 224.093 406.5 222.984 406.44 221.87C406.325 223.985 406.456 226.106 406.83 228.19C406.99 228.97 407.17 229.76 407.29 230.55Z" fill="black"/>
<path id="Vector_40" opacity="0.1" d="M410.34 206.09C411.109 204.798 411.982 203.571 412.95 202.42C411.12 204.17 407.74 202.61 407.03 200.18C406.768 201.163 406.768 202.197 407.03 203.18C407.276 203.914 407.712 204.569 408.293 205.08C408.875 205.592 409.581 205.94 410.34 206.09V206.09Z" fill="black"/>
</g>
<path id="Vector_41" opacity="0.1" d="M660.1 462.66C660.1 462.66 663.27 474.16 660.1 484.16C656.93 494.16 660.1 462.66 660.1 462.66Z" fill="black"/>
<path id="Vector_42" opacity="0.1" d="M673.6 474.39C673.6 474.39 674.93 488.99 671.93 491.58C668.93 494.17 673.6 474.39 673.6 474.39Z" fill="black"/>
</g>
<g id="whitescreens">
<path id="Vector_43" d="M170.6 298.15H348.1V446.4L170.6 450.4V298.15Z" fill="#D4DFEC"/>
<path id="Vector_44" d="M751.6 298.15H574.1V446.4L751.6 450.4V298.15Z" fill="#D4DFEC"/>
<path id="Vector_45" d="M373.1 298.15H550.6V446.4L373.1 450.4V298.15Z" fill="#D4DFEC"/>
</g>
<g id="bluescreens">
<path id="Vector_46" d="M151.93 78.16L132.6 229.49L300.6 234.82L321.26 88.82L151.93 78.16Z" fill="#6C63FF"/>
<path id="Vector_47" d="M556.26 87.49H370.26V231.82H556.26V87.49Z" fill="#6C63FF"/>
<path id="Vector_48" d="M604.93 82.16L774.6 73.82L788.93 225.82L620.6 229.82L604.93 82.16Z" fill="url(#paint0_radial)"/>
</g>
<g id="code">
<path id="Vector_49" d="M382 105H420" stroke="white" stroke-width="2" stroke-miterlimit="10"/>
<path id="Vector_50" d="M382 118H432" stroke="white" stroke-width="2" stroke-miterlimit="10"/>
<path id="Vector_51" d="M382 143L547.01 142" stroke="white" stroke-width="2" stroke-miterlimit="10"/>
<path id="Vector_52" d="M382 155L491 154" stroke="white" stroke-width="2" stroke-miterlimit="10"/>
<path id="Vector_53" d="M382 179H448" stroke="white" stroke-width="2" stroke-miterlimit="10"/>
<path id="Vector_54" d="M382 192L476 191" stroke="white" stroke-width="2" stroke-miterlimit="10"/>
<path id="Vector_55" d="M382 204L513 203" stroke="white" stroke-width="2" stroke-miterlimit="10"/>
<path id="Vector_56" d="M382.01 216.14L547.02 215.14" stroke="white" stroke-width="2" stroke-miterlimit="10"/>
<path id="Vector_57" d="M175 321H213" stroke="#6C63FF" stroke-width="2" stroke-miterlimit="10"/>
<path id="Vector_58" d="M175 334H225" stroke="#6C63FF" stroke-width="2" stroke-miterlimit="10"/>
<path id="Vector_59" d="M175 347L300 346" stroke="#6C63FF" stroke-width="2" stroke-miterlimit="10"/>
<path id="Vector_60" d="M175 359L340.01 358" stroke="#6C63FF" stroke-width="2" stroke-miterlimit="10"/>
<path id="Vector_61" d="M175 371L284 370" stroke="#6C63FF" stroke-width="2" stroke-miterlimit="10"/>
<path id="Vector_62" d="M175 383L297 382" stroke="#6C63FF" stroke-width="2" stroke-miterlimit="10"/>
<path id="Vector_63" d="M175 395H241" stroke="#6C63FF" stroke-width="2" stroke-miterlimit="10"/>
<path id="Vector_64" d="M175 408L269 407" stroke="#6C63FF" stroke-width="2" stroke-miterlimit="10"/>
<path id="Vector_65" d="M175 420L306 419" stroke="#6C63FF" stroke-width="2" stroke-miterlimit="10"/>
<path id="Vector_66" d="M175.01 432.14L340.02 431.14" stroke="#6C63FF" stroke-width="2" stroke-miterlimit="10"/>
<path id="Vector_67" d="M383 308H421" stroke="#6C63FF" stroke-width="2" stroke-miterlimit="10"/>
<path id="Vector_68" d="M383 321H433" stroke="#6C63FF" stroke-width="2" stroke-miterlimit="10"/>
<path id="Vector_69" d="M383 334L508 333" stroke="#6C63FF" stroke-width="2" stroke-miterlimit="10"/>
<path id="Vector_70" d="M383 346L548.01 345" stroke="#6C63FF" stroke-width="2" stroke-miterlimit="10"/>
<path id="Vector_71" d="M383 358L492 357" stroke="#6C63FF" stroke-width="2" stroke-miterlimit="10"/>
<path id="Vector_72" d="M383 370L505 369" stroke="#6C63FF" stroke-width="2" stroke-miterlimit="10"/>
<path id="Vector_73" d="M383 382H449" stroke="#6C63FF" stroke-width="2" stroke-miterlimit="10"/>
<path id="Vector_74" d="M383 395L477 394" stroke="#6C63FF" stroke-width="2" stroke-miterlimit="10"/>
<path id="Vector_75" d="M383 407L514 406" stroke="#6C63FF" stroke-width="2" stroke-miterlimit="10"/>
<path id="Vector_76" d="M383.01 419.14L548.02 418.14" stroke="#6C63FF" stroke-width="2" stroke-miterlimit="10"/>
<path id="Vector_77" d="M155 88L192.907 90.6507" stroke="white" stroke-width="2" stroke-miterlimit="10"/>
<path id="Vector_78" d="M154 101L203.878 104.488" stroke="white" stroke-width="2" stroke-miterlimit="10"/>
<path id="Vector_79" d="M588 313H626" stroke="#6C63FF" stroke-width="2" stroke-miterlimit="10"/>
<path id="Vector_80" d="M600 325.744H650" stroke="#6C63FF" stroke-width="2" stroke-miterlimit="10"/>
<path id="Vector_81" d="M610 339H620" stroke="#6C63FF" stroke-width="2" stroke-miterlimit="10"/>
<path id="Vector_82" d="M610 353H640" stroke="#6C63FF" stroke-width="2" stroke-miterlimit="10"/>
<path id="Vector_83" d="M610 366H620" stroke="#6C63FF" stroke-width="2" stroke-miterlimit="10"/>
<path id="Vector_84" d="M154 125.586L250.674 131.757" stroke="white" stroke-width="2" stroke-miterlimit="10"/>
<path id="Vector_85" d="M158 137.996L206.261 141.215" stroke="white" stroke-width="2" stroke-miterlimit="10"/>
<path id="Vector_86" d="M157 150.998L296.991 159.784" stroke="white" stroke-width="2" stroke-miterlimit="10"/>
<path id="Vector_87" d="M156 163L221.839 167.604" stroke="white" stroke-width="2" stroke-miterlimit="10"/>
<path id="Vector_88" d="M148 173.998L241.841 179.557" stroke="white" stroke-width="2" stroke-miterlimit="10"/>
<path id="Vector_89" d="M155 187.629L237.469 192.764" stroke="white" stroke-width="2" stroke-miterlimit="10"/>
<path id="Vector_90" d="M142 198.835L279.861 207.636" stroke="white" stroke-width="2" stroke-miterlimit="10"/>
</g>
<g id="character">
<path id="Vector_91" d="M463.26 302.49C491.609 302.49 514.59 279.509 514.59 251.16C514.59 222.811 491.609 199.83 463.26 199.83C434.911 199.83 411.93 222.811 411.93 251.16C411.93 279.509 434.911 302.49 463.26 302.49Z" fill="#FBBEBE"/>
<path id="Vector_92" d="M514.6 356.16C514.6 356.16 415.1 368.16 424.6 356.16C428.04 351.82 428.99 338.96 428.8 324.31C428.74 319.86 428.58 315.25 428.35 310.66C427.25 288.66 424.6 267.16 424.6 267.16C424.6 267.16 511.6 226.16 501.6 258.66C497.6 271.79 498.91 290.23 501.95 307.54C502.84 312.59 503.87 317.54 504.95 322.24C507.586 333.704 510.807 345.025 514.6 356.16V356.16Z" fill="#FBBEBE"/>
<path id="Vector_93" opacity="0.1" d="M514.6 356.16C514.6 356.16 415.1 368.16 424.6 356.16C428.04 351.82 428.99 338.96 428.8 324.31C443.97 317.83 463.27 322.66 463.27 322.66C483.59 318.61 496.62 319.4 504.95 322.24C507.586 333.704 510.807 345.025 514.6 356.16V356.16Z" fill="black"/>
<path id="Vector_94" d="M325.74 531.53V530.69L501.36 528.78L608.36 527.78H608.66L608.55 529.26L608.7 527.78H608.89V527.61L610.26 514.16L610.78 509.07L610.94 507.48L611.08 506.15L617.26 485.54L623.44 464.96L628.64 447.63L636.58 421.15C636.58 421.15 632.08 410.65 629.58 407.65C627.08 404.65 624.58 384.15 624.58 384.15C624.58 384.15 603.24 363.82 593.91 361.48C590 360.48 582.28 359.15 574.08 357.48C571.01 356.86 567.86 356.2 564.83 355.48C563.12 355.09 561.44 354.68 559.83 354.27C556.696 353.487 553.608 352.533 550.58 351.41C548.992 350.833 547.481 350.064 546.08 349.12C538.73 343.73 520.31 343.12 519.6 343.12C519.598 343.097 519.598 343.073 519.6 343.05V342.96C519.626 342.54 519.626 342.12 519.6 341.7C519.6 341.3 519.6 340.83 519.51 340.3C519.51 340.14 519.51 339.97 519.44 339.8C519.39 339.44 519.33 339.06 519.24 338.66C519.21 338.481 519.17 338.304 519.12 338.13C518.83 336.925 518.411 335.755 517.87 334.64C517.8 334.48 517.71 334.31 517.63 334.15C517.14 333.226 516.571 332.346 515.93 331.52C515.8 331.35 515.66 331.17 515.51 331C514.691 330.034 513.78 329.15 512.79 328.36C512.52 328.15 512.24 327.93 511.95 327.73C511.788 327.599 511.618 327.479 511.44 327.37L510.55 326.79L509.72 326.31C508.99 325.91 508.22 325.52 507.38 325.15C507.12 325.03 506.84 324.92 506.56 324.81C506.28 324.7 505.84 324.53 505.47 324.39H505.41L504.66 324.09C504.09 323.9 503.51 323.73 502.9 323.56L501.97 323.32L500.97 323.09L499.97 322.88C498.97 322.68 497.9 322.5 496.78 322.36L495.64 322.22L494.47 322.1L493.26 322L491.54 321.9L489.54 321.83C480.719 321.829 471.923 322.764 463.3 324.62C457.309 323.287 451.173 322.722 445.04 322.94H444.17L443.17 323H442.53L441.24 323.12C440.81 323.12 440.37 323.21 439.94 323.27C439.51 323.33 439.06 323.38 438.63 323.45L437.97 323.56C437.32 323.67 436.66 323.79 435.97 323.93C435.75 323.97 435.53 324.02 435.31 324.08C434.44 324.27 433.57 324.5 432.71 324.76C432.28 324.88 431.85 325.02 431.42 325.17C431.2 325.23 430.99 325.31 430.78 325.39L430.14 325.62L429.51 325.87L428.76 326.17C428.38 326.33 428.01 326.5 427.64 326.68C427.43 326.77 427.22 326.87 427.02 326.98C426.82 327.09 426.61 327.18 426.42 327.29C424.159 328.458 422.069 329.932 420.21 331.67L419.7 332.16L419.2 332.67C419.03 332.84 418.87 333.02 418.71 333.2C418.058 333.912 417.45 334.664 416.89 335.45C416.73 335.66 416.58 335.87 416.43 336.09C415.795 337.026 415.221 338.001 414.71 339.01C414.58 339.25 414.46 339.5 414.34 339.74C413.524 341.429 412.855 343.186 412.34 344.99C412.153 345.657 411.983 346.323 411.83 346.99C411.83 346.99 390.66 356.33 373.1 363.09C368.43 364.89 364.03 366.52 360.35 367.75C359.28 368.11 358.28 368.44 357.35 368.75C355.332 369.479 353.234 369.963 351.1 370.19C350.094 370.206 349.091 370.3 348.1 370.47C340.03 371.78 326.2 377.47 324.69 383.18C324.567 383.636 324.533 384.111 324.59 384.58C324.59 384.58 324.59 384.65 324.59 384.69C325.59 391.69 318.59 390.69 318.59 390.69C318.59 390.69 316.09 409.19 312.59 414.19C310.06 417.79 308.33 425.82 308.11 431.88C307.984 433.768 308.132 435.664 308.55 437.51C308.55 437.56 308.55 437.61 308.55 437.65C308.95 438.99 307.99 442.65 306.36 447.34C304.59 452.49 302.01 458.89 299.53 464.93C295.79 474.05 292.27 482.33 292.05 484.15C291.96 484.96 291.7 486.41 291.34 488.28C289.88 495.9 286.64 510.41 285.04 516.28C283.85 520.66 282.12 526.66 280.93 530.78C280.93 530.9 280.86 531.02 280.83 531.13L325.66 530.69V531.53H325.8H325.74Z" fill="#6C63FF"/>
<path id="Vector_95" opacity="0.1" d="M342.1 413.66C342.1 413.66 399.1 443.16 419.6 439.66L342.1 413.66Z" fill="black"/>
<path id="Vector_96" opacity="0.1" d="M458.1 401.66C458.1 401.66 513.6 419.66 532.1 422.16C550.6 424.66 458.1 401.66 458.1 401.66Z" fill="black"/>
<path id="Vector_97" opacity="0.1" d="M519.66 343.74C490.66 349.08 436.06 347.93 412.46 347.12C421.11 316.12 463.29 326.66 463.29 326.66C515.5 316.24 519.5 337.86 519.66 343.74Z" fill="black"/>
<path id="Vector_98" d="M519.66 341.74C490.66 347.08 436.06 345.93 412.46 345.12C421.11 314.12 463.29 324.66 463.29 324.66C515.5 314.24 519.5 335.86 519.66 341.74Z" fill="#6C63FF"/>
<path id="Vector_99" d="M673.6 478.41C673.6 478.41 707.76 473.16 708.43 488.16C709.1 503.16 691.01 513.64 691.01 513.64L673.6 478.41Z" fill="#FBBEBE"/>
<path id="Vector_100" opacity="0.1" d="M501.95 307.54C500.481 308.197 498.979 308.777 497.45 309.28C486.67 313 475.8 316.75 464.45 318.11C453.1 319.47 441.19 318.27 431.29 312.61C430.251 312.023 429.249 311.372 428.29 310.66C427.19 288.66 424.54 267.16 424.54 267.16C424.54 267.16 511.54 226.16 501.54 258.66C497.56 271.79 498.91 290.23 501.95 307.54Z" fill="black"/>
<path id="Vector_101" d="M449.18 170.93C447.753 171.307 446.257 171.345 444.813 171.041C443.368 170.737 442.014 170.1 440.86 169.18L442.94 172.07C441.714 172.211 440.472 172.083 439.301 171.695C438.13 171.306 437.058 170.666 436.16 169.82C435.971 172.407 436.079 175.007 436.48 177.57C433.038 177.736 429.65 176.673 426.92 174.57C426.867 175.472 427.091 176.369 427.563 177.14C428.035 177.91 428.732 178.518 429.56 178.88C426.103 178.467 422.613 179.326 419.743 181.297C416.872 183.267 414.817 186.215 413.96 189.59L419.18 190.07C415.078 190.946 411.396 193.193 408.74 196.44C407.14 198.44 405.92 201 406.62 203.44C407.32 205.88 410.7 207.44 412.54 205.7C409.923 208.824 408.02 212.483 406.967 216.42C405.913 220.357 405.733 224.476 406.44 228.49C406.915 230.2 407.071 231.983 406.9 233.75C406.57 235.4 405.53 236.83 405.01 238.44C404.01 241.36 404.96 244.53 405.85 247.44L410.54 262.86C412.24 268.43 413.93 274.01 416.15 279.4C417.722 282.808 419.059 286.319 420.15 289.91C421.41 294.75 421.46 300.05 424.15 304.28C425.994 306.942 428.458 309.115 431.33 310.61C441.22 316.27 453.17 317.47 464.49 316.11C475.81 314.75 486.67 311 497.44 307.28C499.833 306.559 502.129 305.552 504.28 304.28C511.73 299.4 513.39 289.42 514.78 280.63C516.33 270.83 518.4 261.05 522.07 251.83C524.25 246.34 527.07 240.77 526.59 234.89C525.98 227.08 519.8 220.75 518.27 213.07C517.758 210.503 517.782 207.858 518.34 205.3C518.814 203.776 519.08 202.195 519.13 200.6C518.96 197.38 516.32 194.9 513.84 192.83C508.46 188.337 502.907 184.09 497.18 180.09C496.89 178.09 499.61 177.23 500.84 175.65C502.58 173.42 500.78 169.88 498.14 168.84C495.5 167.8 492.54 168.48 489.79 169.17C489.969 167.762 489.689 166.335 488.992 165.099C488.294 163.863 487.217 162.885 485.919 162.311C484.621 161.737 483.173 161.597 481.79 161.912C480.406 162.227 479.161 162.981 478.24 164.06C477.51 162.385 476.343 160.938 474.862 159.868C473.381 158.799 471.639 158.147 469.82 157.98C463.19 157.46 463.06 162.53 458.82 165.32C454.58 168.11 451.08 164.43 447.82 161.75C447.221 163.265 447.031 164.911 447.27 166.522C447.509 168.134 448.168 169.654 449.18 170.93V170.93Z" fill="#3F3D56"/>
<path id="Vector_102" d="M698.93 508.41C698.93 508.41 698.04 510.53 696.4 513.6C693.919 518.323 690.899 522.743 687.4 526.77L687.13 527.06H685.51L627.77 527.59H626.39L626.22 527.39L615.02 514.1L610.8 509.09L610.63 508.88L610.27 508.46L610.07 508.22L609.81 507.91L601.6 498.17L604.6 485.67L609.71 464.61L609.84 464.1L610.84 460.1L611.55 457.1L613.93 447.32L622.09 413.67L636.59 421.17L651.88 448.17L660.09 462.67H664.59C665.44 462.67 667.39 464.31 669.35 466.2C670.05 466.87 670.75 467.58 671.35 468.2C673.13 470.04 674.54 471.62 674.54 471.62C674.54 471.62 681.83 471.78 683.79 477.52C683.891 477.798 683.975 478.082 684.04 478.37C684.691 480.626 685.537 482.821 686.57 484.93C687.86 487.74 689.48 490.93 691.12 494.12C694.17 499.97 697.27 505.54 698.41 507.56L698.55 507.81L698.93 508.41Z" fill="#6C63FF"/>
<path id="Vector_103" opacity="0.1" d="M613.03 463.26L612.93 464.69V464.79L612.76 467.09L611.43 485.6L609.82 507.9L609.36 514.18L608.36 527.62V527.79L501.36 528.79L325.77 530.69V531.53H325.63V530.69V530.41L326.08 516.05L326.94 487.99L327.68 464.2L327.75 461.83C327.794 460.4 328.129 458.993 328.734 457.696C329.34 456.4 330.203 455.24 331.272 454.288C332.341 453.336 333.592 452.612 334.95 452.161C336.308 451.709 337.744 451.538 339.17 451.66C343.89 452.06 350.02 452.55 357.35 453.07L360.35 453.29C402.68 456.23 480.91 460.03 559.85 455.29C561.51 455.2 563.18 455.1 564.85 454.98C577.09 454.21 589.32 453.22 601.43 451.98C602.961 451.82 604.508 451.997 605.963 452.499C607.418 453.001 608.746 453.817 609.851 454.887C610.957 455.958 611.815 457.258 612.364 458.696C612.913 460.134 613.141 461.675 613.03 463.21V463.26Z" fill="black"/>
<path id="Vector_104" d="M325.74 531.53V530.69L501.36 528.78L608.36 527.78H608.66V527.61L609.66 514.17L610.09 508.17L611.73 485.56L613.02 467.66V467.22C613.08 466.395 613.043 465.566 612.91 464.75C612.916 464.717 612.916 464.683 612.91 464.65C612.635 462.962 611.948 461.369 610.91 460.01C609.809 458.598 608.366 457.49 606.718 456.79C605.07 456.09 603.271 455.822 601.49 456.01C589.38 457.25 577.15 458.24 564.91 459.01C563.24 459.13 561.57 459.23 559.91 459.32C480.97 464.01 402.74 460.21 360.41 457.32L357.41 457.1C350.08 456.58 343.95 456.1 339.23 455.69C336.633 455.471 334.048 456.221 331.972 457.797C329.896 459.372 328.478 461.66 327.99 464.22C327.889 464.761 327.829 465.31 327.81 465.86L327.13 488.02L326.2 516.09L325.76 530.45V530.73V531.57L325.74 531.53Z" fill="#3F3D56"/>
<path id="Vector_105" opacity="0.1" d="M613.33 470.27L612.1 485.6L610.27 508.45L609.81 514.17L608.81 526.98L608.75 527.62V527.79L608.6 529.27L608.71 527.79H608.42L501.42 528.79L325.77 530.69V530.41L326.26 516.05L327.26 487.99L327.9 469.34C327.931 468.279 328.228 467.243 328.762 466.326C329.297 465.409 330.052 464.64 330.96 464.09C332.092 463.396 333.416 463.081 334.74 463.19C336.84 463.36 339.42 463.56 342.43 463.78C347.32 464.14 353.35 464.56 360.37 465C373.37 465.82 389.68 466.7 408.37 467.42C460.37 469.42 530.57 470.09 597.25 464.25C600.25 463.99 603.35 463.7 606.38 463.41C607.579 463.29 608.788 463.52 609.86 464.07C610.164 464.221 610.452 464.402 610.72 464.61C611.591 465.241 612.28 466.089 612.72 467.07C612.822 467.265 612.906 467.469 612.97 467.68C613.27 468.509 613.393 469.391 613.33 470.27V470.27Z" fill="black"/>
</g>
<g id="preview">
<path id="Rectangle 1" d="M638.233 123.371C638.104 120.662 640.156 118.344 642.86 118.145L751.139 110.157C753.943 109.95 756.367 112.096 756.501 114.904L759.267 172.633C759.397 175.341 757.344 177.659 754.64 177.858L646.361 185.846C643.557 186.053 641.134 183.907 640.999 181.099L638.233 123.371Z" fill="#EFEFEF"/>
<path id="Vector_106" d="M655.316 143.408L705.21 140.163" stroke="black" stroke-width="2" stroke-miterlimit="10"/>
<path id="Vector_107" d="M655.316 148.408L705.21 145.163" stroke="black" stroke-width="2" stroke-miterlimit="10"/>
<path id="Vector_108" d="M655.316 153.408L705.21 150.163" stroke="black" stroke-width="2" stroke-miterlimit="10"/>
<path id="Vector_109" d="M655.316 158.408L705.21 155.163" stroke="black" stroke-width="2" stroke-miterlimit="10"/>
<g id="Strona w budowie..">
<path d="M656.6 134.759C656.104 134.802 655.617 134.779 655.139 134.688C654.667 134.591 654.281 134.447 653.981 134.256L654.379 133.119C654.665 133.293 654.999 133.423 655.38 133.511C655.761 133.598 656.137 133.625 656.507 133.593C656.92 133.557 657.219 133.47 657.406 133.333C657.592 133.191 657.676 133.018 657.659 132.814C657.646 132.665 657.575 132.548 657.447 132.462C657.325 132.371 657.168 132.303 656.978 132.26C656.793 132.215 656.542 132.171 656.225 132.127C655.737 132.055 655.336 131.976 655.021 131.889C654.706 131.802 654.427 131.643 654.184 131.411C653.947 131.179 653.81 130.853 653.774 130.435C653.742 130.07 653.811 129.733 653.983 129.423C654.154 129.107 654.429 128.845 654.809 128.637C655.194 128.428 655.674 128.299 656.247 128.249C656.648 128.214 657.044 128.227 657.434 128.29C657.825 128.352 658.172 128.46 658.475 128.614L658.123 129.756C657.514 129.478 656.92 129.365 656.34 129.415C655.934 129.451 655.638 129.543 655.452 129.692C655.272 129.84 655.192 130.022 655.211 130.237C655.23 130.452 655.354 130.604 655.585 130.692C655.821 130.774 656.173 130.845 656.643 130.907C657.131 130.978 657.532 131.058 657.847 131.145C658.162 131.231 658.437 131.388 658.674 131.614C658.917 131.84 659.056 132.162 659.093 132.58C659.124 132.939 659.051 133.277 658.874 133.593C658.703 133.903 658.424 134.163 658.039 134.371C657.654 134.579 657.174 134.709 656.6 134.759Z" fill="black"/>
<path d="M663.238 133.835C663.11 133.949 662.946 134.041 662.747 134.113C662.554 134.178 662.347 134.22 662.126 134.239C661.552 134.29 661.094 134.182 660.752 133.917C660.415 133.651 660.222 133.234 660.173 132.667L659.999 130.685L659.255 130.75L659.161 129.674L659.905 129.609L659.802 128.435L661.201 128.312L661.304 129.487L662.505 129.382L662.599 130.458L661.398 130.563L661.57 132.526C661.588 132.73 661.652 132.884 661.764 132.988C661.881 133.086 662.035 133.127 662.226 133.11C662.447 133.091 662.63 133.015 662.775 132.882L663.238 133.835Z" fill="black"/>
<path d="M665.013 129.695C665.16 129.448 665.369 129.252 665.639 129.108C665.916 128.963 666.239 128.874 666.61 128.842L666.723 130.133C666.566 130.135 666.461 130.138 666.408 130.143C666.007 130.178 665.703 130.319 665.496 130.566C665.288 130.807 665.204 131.151 665.243 131.6L665.442 133.877L664.044 133.999L663.622 129.176L664.958 129.059L665.013 129.695Z" fill="black"/>
<path d="M670.128 133.539C669.62 133.584 669.153 133.519 668.728 133.346C668.309 133.165 667.969 132.897 667.709 132.54C667.449 132.184 667.298 131.766 667.256 131.288C667.215 130.81 667.291 130.373 667.485 129.976C667.679 129.58 667.967 129.259 668.35 129.015C668.737 128.764 669.185 128.617 669.693 128.572C670.201 128.528 670.665 128.596 671.084 128.776C671.503 128.95 671.842 129.215 672.102 129.572C672.362 129.929 672.513 130.346 672.555 130.824C672.597 131.303 672.521 131.74 672.327 132.136C672.132 132.533 671.845 132.856 671.463 133.106C671.081 133.351 670.636 133.495 670.128 133.539ZM670.027 132.392C670.386 132.36 670.668 132.215 670.874 131.956C671.086 131.691 671.174 131.355 671.139 130.948C671.103 130.542 670.958 130.229 670.704 130.011C670.456 129.785 670.152 129.689 669.793 129.72C669.435 129.751 669.15 129.9 668.938 130.165C668.726 130.425 668.637 130.758 668.673 131.164C668.709 131.571 668.854 131.886 669.108 132.111C669.362 132.329 669.669 132.423 670.027 132.392Z" fill="black"/>
<path d="M676.205 128.003C676.802 127.95 677.299 128.088 677.695 128.414C678.097 128.741 678.329 129.256 678.391 129.962L678.632 132.723L677.234 132.845L677.011 130.299C676.977 129.917 676.869 129.64 676.685 129.469C676.501 129.293 676.251 129.218 675.934 129.246C675.581 129.277 675.31 129.412 675.12 129.651C674.93 129.885 674.853 130.217 674.891 130.647L675.1 133.032L673.701 133.154L673.279 128.331L674.615 128.214L674.664 128.779C674.832 128.559 675.048 128.384 675.314 128.252C675.579 128.115 675.876 128.031 676.205 128.003Z" fill="black"/>
<path d="M681.417 127.547C682.165 127.481 682.754 127.61 683.186 127.934C683.617 128.252 683.864 128.769 683.927 129.486L684.168 132.239L682.859 132.353L682.806 131.753C682.582 132.224 682.112 132.491 681.395 132.554C681.024 132.586 680.696 132.552 680.41 132.45C680.13 132.348 679.909 132.193 679.746 131.984C679.583 131.776 679.489 131.531 679.465 131.25C679.425 130.802 679.562 130.434 679.874 130.148C680.192 129.861 680.704 129.687 681.409 129.625L682.521 129.528C682.495 129.223 682.382 128.998 682.182 128.853C681.982 128.702 681.697 128.642 681.326 128.675C681.069 128.697 680.819 128.761 680.575 128.867C680.337 128.966 680.137 129.092 679.976 129.245L679.388 128.311C679.635 128.103 679.936 127.932 680.292 127.799C680.654 127.665 681.029 127.581 681.417 127.547ZM681.662 131.582C681.901 131.561 682.109 131.488 682.284 131.365C682.46 131.235 682.577 131.059 682.636 130.837L682.593 130.344L681.633 130.428C681.059 130.478 680.789 130.691 680.822 131.068C680.838 131.247 680.919 131.385 681.066 131.48C681.218 131.569 681.417 131.603 681.662 131.582Z" fill="black"/>
<path d="M695.297 126.405L693.971 131.381L692.626 131.499L691.279 128.599L690.42 131.692L689.076 131.809L686.914 127.138L688.232 127.023L689.656 130.187L690.554 126.819L691.738 126.716L693.171 129.879L694.06 126.513L695.297 126.405Z" fill="black"/>
<path d="M701.331 125.804C701.78 125.765 702.195 125.834 702.578 126.011C702.967 126.182 703.282 126.447 703.524 126.805C703.766 127.157 703.908 127.582 703.951 128.078C703.995 128.574 703.928 129.019 703.752 129.414C703.575 129.803 703.311 130.118 702.959 130.36C702.612 130.595 702.214 130.732 701.766 130.771C701.102 130.829 700.579 130.664 700.196 130.276L700.244 130.832L698.909 130.949L698.326 124.296L699.725 124.174L699.93 126.514C700.249 126.095 700.716 125.858 701.331 125.804ZM701.423 129.645C701.782 129.614 702.064 129.468 702.271 129.209C702.482 128.944 702.57 128.608 702.535 128.202C702.499 127.795 702.355 127.483 702.1 127.264C701.852 127.039 701.548 126.942 701.19 126.973C700.831 127.005 700.546 127.153 700.334 127.418C700.128 127.677 700.043 128.01 700.078 128.416C700.114 128.823 700.256 129.139 700.504 129.364C700.758 129.583 701.065 129.676 701.423 129.645Z" fill="black"/>
<path d="M709.536 125.159L709.958 129.982L708.631 130.098L708.581 129.525C708.414 129.75 708.207 129.931 707.96 130.067C707.712 130.197 707.439 130.275 707.14 130.301C706.507 130.357 705.989 130.218 705.586 129.886C705.184 129.554 704.951 129.029 704.888 128.312L704.65 125.586L706.049 125.464L706.269 127.983C706.337 128.76 706.697 129.12 707.348 129.063C707.683 129.034 707.942 128.903 708.127 128.67C708.311 128.431 708.384 128.096 708.346 127.666L708.138 125.281L709.536 125.159Z" fill="black"/>
<path d="M715.585 122.787L716.167 129.439L714.831 129.556L714.783 129C714.473 129.449 713.989 129.702 713.331 129.76C712.877 129.799 712.456 129.734 712.067 129.563C711.685 129.392 711.373 129.127 711.131 128.769C710.888 128.41 710.746 127.983 710.702 127.487C710.659 126.991 710.725 126.545 710.902 126.151C711.078 125.756 711.339 125.441 711.686 125.206C712.039 124.97 712.442 124.832 712.897 124.792C713.512 124.739 714.011 124.891 714.391 125.249L714.186 122.909L715.585 122.787ZM713.473 128.591C713.826 128.56 714.108 128.415 714.32 128.155C714.532 127.89 714.62 127.554 714.584 127.147C714.549 126.741 714.404 126.428 714.15 126.21C713.895 125.985 713.592 125.888 713.239 125.919C712.881 125.95 712.595 126.099 712.384 126.364C712.172 126.624 712.083 126.957 712.119 127.363C712.154 127.77 712.299 128.085 712.554 128.31C712.808 128.528 713.114 128.622 713.473 128.591Z" fill="black"/>
<path d="M719.763 129.197C719.255 129.241 718.789 129.177 718.364 129.003C717.945 128.823 717.605 128.554 717.345 128.198C717.085 127.841 716.934 127.424 716.892 126.945C716.85 126.467 716.926 126.03 717.121 125.634C717.315 125.237 717.603 124.917 717.985 124.673C718.373 124.422 718.821 124.274 719.329 124.23C719.837 124.185 720.3 124.253 720.72 124.433C721.138 124.607 721.478 124.873 721.738 125.23C721.998 125.586 722.149 126.004 722.191 126.482C722.233 126.96 722.156 127.397 721.962 127.794C721.768 128.19 721.48 128.514 721.099 128.764C720.716 129.008 720.271 129.152 719.763 129.197ZM719.663 128.049C720.021 128.018 720.304 127.873 720.51 127.614C720.722 127.348 720.81 127.012 720.774 126.606C720.739 126.199 720.594 125.887 720.34 125.668C720.091 125.443 719.788 125.346 719.429 125.377C719.07 125.409 718.785 125.557 718.574 125.823C718.361 126.082 718.273 126.415 718.309 126.822C718.344 127.228 718.489 127.544 718.744 127.768C718.998 127.987 719.304 128.081 719.663 128.049Z" fill="black"/>
<path d="M730.53 123.322L729.203 128.299L727.859 128.416L726.512 125.517L725.653 128.609L724.308 128.727L722.147 124.055L723.465 123.94L724.889 127.104L725.787 123.737L726.97 123.633L728.404 126.797L729.292 123.43L730.53 123.322Z" fill="black"/>
<path d="M731.18 123.265L732.579 123.143L733.001 127.966L731.602 128.089L731.18 123.265ZM731.82 122.532C731.563 122.554 731.348 122.498 731.173 122.362C730.999 122.227 730.902 122.049 730.883 121.828C730.863 121.606 730.928 121.414 731.076 121.251C731.224 121.087 731.427 120.994 731.684 120.972C731.941 120.949 732.157 121.002 732.33 121.132C732.504 121.261 732.601 121.433 732.62 121.649C732.64 121.882 732.576 122.083 732.428 122.253C732.28 122.416 732.078 122.509 731.82 122.532Z" fill="black"/>
<path d="M738.814 125.046C738.816 125.064 738.818 125.19 738.82 125.425L735.171 125.744C735.263 126.037 735.439 126.259 735.699 126.411C735.96 126.563 736.272 126.623 736.637 126.591C736.888 126.569 737.106 126.514 737.291 126.426C737.481 126.331 737.653 126.195 737.806 126.019L738.621 126.761C738.212 127.321 737.572 127.639 736.699 127.715C736.155 127.763 735.665 127.7 735.228 127.528C734.791 127.349 734.442 127.081 734.182 126.725C733.922 126.368 733.771 125.951 733.729 125.472C733.688 125 733.761 124.566 733.949 124.17C734.143 123.768 734.425 123.445 734.795 123.202C735.171 122.952 735.601 122.806 736.085 122.764C736.557 122.722 736.993 122.787 737.394 122.956C737.794 123.126 738.119 123.393 738.367 123.757C738.621 124.114 738.77 124.544 738.814 125.046ZM736.187 123.821C735.87 123.849 735.612 123.962 735.412 124.16C735.213 124.358 735.103 124.614 735.082 124.929L737.458 124.722C737.383 124.421 737.231 124.19 737 124.03C736.768 123.863 736.497 123.794 736.187 123.821Z" fill="black"/>
<path d="M740.49 127.383C740.245 127.405 740.032 127.339 739.85 127.187C739.668 127.034 739.566 126.832 739.544 126.581C739.521 126.324 739.587 126.11 739.74 125.94C739.894 125.764 740.093 125.666 740.338 125.644C740.583 125.623 740.796 125.685 740.978 125.832C741.159 125.973 741.26 126.172 741.283 126.429C741.305 126.68 741.24 126.896 741.087 127.078C740.934 127.26 740.735 127.362 740.49 127.383Z" fill="black"/>
<path d="M742.837 127.178C742.592 127.2 742.378 127.134 742.196 126.981C742.014 126.829 741.912 126.627 741.89 126.376C741.868 126.119 741.933 125.905 742.087 125.735C742.24 125.559 742.439 125.46 742.684 125.439C742.93 125.417 743.143 125.48 743.324 125.627C743.505 125.767 743.607 125.966 743.629 126.223C743.651 126.474 743.586 126.691 743.433 126.873C743.281 127.055 743.082 127.157 742.837 127.178Z" fill="black"/>
</g>
<rect id="Rectangle 2" x="673" y="167.698" width="10" height="10" rx="1" transform="rotate(-4 673 167.698)" fill="black"/>
<rect id="Rectangle 3" x="708" y="164.698" width="10" height="10" rx="1" transform="rotate(-4 708 164.698)" fill="black"/>
</g>
</g>
<defs>
<radialGradient id="paint0_radial" cx="0" cy="0" r="1" gradientUnits="userSpaceOnUse" gradientTransform="translate(696.93 151.82) rotate(89.9729) scale(148.18 174.776)">
<stop stop-color="#4C0067"/>
<stop offset="1"/>
</radialGradient>
</defs>
</svg>
