<svg width="303" height="348" viewBox="0 0 303 348" fill="none" xmlns="http://www.w3.org/2000/svg">
<g filter="url(#filter0_f)">
<path d="M211.692 79.0001C218.5 79.0001 224.02 121.387 224.02 173.674C224.02 225.961 218.5 268.348 211.692 268.348C204.884 268.348 199.365 225.961 199.365 173.674C199.365 121.387 204.884 79.0001 211.692 79.0001Z" fill="#FFD829" fill-opacity="0.2567"/>
</g>
<path d="M2 111.408L2 242.228C2 251.259 9.32125 258.581 18.3525 258.581H203.136C212.167 258.581 219.488 251.259 219.488 242.228V111.408C219.488 102.377 212.167 95.0557 203.136 95.0557H18.3525C9.32125 95.0557 2 102.377 2 111.408Z" fill="black" stroke="#FFD829" stroke-width="3"/>
<path d="M15.082 108.547L15.082 245.09H196.595V108.547H15.082Z" fill="white"/>
<defs>
<filter id="filter0_f" x="120.415" y="0.0501251" width="182.554" height="347.248" filterUnits="userSpaceOnUse" color-interpolation-filters="sRGB">
<feFlood flood-opacity="0" result="BackgroundImageFix"/>
<feBlend mode="normal" in="SourceGraphic" in2="BackgroundImageFix" result="shape"/>
<feGaussianBlur stdDeviation="39.4749" result="effect1_foregroundBlur"/>
</filter>
</defs>
</svg>
